# xmcd
#
# Track frame offsets: 
#        150
#        22217
#        41277
#        53154
#        70642
#        95842
#        115128
#        131268
#        148143
#        168393
#        187124
#        205687
#        234824
#        250896
#        274296
#
# Disc length: 3822 seconds
#
# Revision: 0
# Processed by: cddbd v1.5.2PL0 Copyright (c) Steve Scherf et al.
# Submitted via: ExactAudioCopyFreeDBPlugin 1.0
#
DISCID=d60eec0f
DTITLE=Bassnectar - Unlimited
DYEAR=2016
DGENRE=Electronic
TTITLE0=Reaching Out
TTITLE1=Music is the Drug
TTITLE2=TKO (Ft. Rye Rye and Zion I)
TTITLE3=Mind Tricks (Ft. Lafa Taylor)
TTITLE4=Unlimited Combinations
TTITLE5=Level Up (Ft. Macntai)
TTITLE6=Shampion Chip 
TTITLE7=Zodzilla
TTITLE8=Paracosm
TTITLE9=Surrender (Ft. Haley)
TTITLE10=Dream Catcher
TTITLE11=Journey to the Center
TTITLE12=In the Beginning [2016 version]
TTITLE13=Rising Rising (Bassnectar Remix)
TTITLE14=Inspire the Empathitic
EXTD=
EXTT0=
EXTT1=
EXTT2=
EXTT3=
EXTT4=
EXTT5=
EXTT6=
EXTT7=
EXTT8=
EXTT9=
EXTT10=
EXTT11=
EXTT12=
EXTT13=
EXTT14=
PLAYORDER=
